<svg width="1600" height="1600" viewBox="0 0 1200 1200" xmlns="http://www.w3.org/2000/svg"><path d="M37.5 806.25v56.25a56.32 56.32 0 0 0 16.492 39.758A56.32 56.32 0 0 0 93.75 918.75h1012.5a56.32 56.32 0 0 0 39.758-16.492A56.32 56.32 0 0 0 1162.5 862.5v-56.25zm975 75a18.75 18.75 0 0 1-18.75-18.75 18.752 18.752 0 0 1 32.008-13.258 18.75 18.75 0 0 1 0 26.516 18.75 18.75 0 0 1-13.258 5.492m56.25 0A18.75 18.75 0 0 1 1050 862.5a18.752 18.752 0 0 1 32.008-13.258 18.75 18.75 0 0 1 0 26.516 18.75 18.75 0 0 1-13.258 5.492M787.5 1050a56.32 56.32 0 0 1-16.492 39.758 56.32 56.32 0 0 1-39.758 16.492h-262.5a56.26 56.26 0 0 1-48.715-28.125 56.26 56.26 0 0 1 0-56.25 56.26 56.26 0 0 1 48.715-28.125h5.234l12.5-37.5h227.03l12.5 37.5h5.235a56.32 56.32 0 0 1 39.758 16.492A56.32 56.32 0 0 1 787.499 1050zm55.461-889.96v158.35a18.72 18.72 0 0 1-5.488 13.262 18.72 18.72 0 0 1-13.262 5.488H665.88a18.75 18.75 0 0 1-18.75-18.75 18.75 18.75 0 0 1 5.492-13.254l32.852-32.852a112.93 112.93 0 0 0-66.875-53.688 112.917 112.917 0 0 0-139.836 74.984c-26.258 78.016-142.69 41.52-119.66-37.39h.004a238.24 238.24 0 0 1 104.88-133.65 238.276 238.276 0 0 1 311.85 59.367l35.117-35.117v-.004a18.76 18.76 0 0 1 13.258-5.492 18.75 18.75 0 0 1 18.75 18.75zm-2.14 277.64v-.004a238.76 238.76 0 0 1-105.34 133.4 238.72 238.72 0 0 1-167.39 29.504 238.76 238.76 0 0 1-144.6-89.348l-35.228 35.246a18.73 18.73 0 0 1-13.258 5.492 18.75 18.75 0 0 1-18.75-18.746v-158.7a18.74 18.74 0 0 1 18.75-18.75h158.68c4.973 0 9.743 1.976 13.259 5.492s5.492 8.285 5.488 13.258c0 4.973-1.973 9.742-5.492 13.258l-32.941 32.94h.004a113.2 113.2 0 0 0 152.922 44.863 113.2 113.2 0 0 0 54.5-66.745c12.676-48.484 82.984-57.547 110.08-17.414a62.53 62.53 0 0 1 9.32 56.25zM319.66 262.5H131.25a18.75 18.75 0 0 0-18.75 18.75v487.5h-75v-525a56.32 56.32 0 0 1 16.491-39.758A56.32 56.32 0 0 1 93.75 187.5h254.93a224.3 224.3 0 0 0-29.012 75zm842.84-18.75v525h-75v-487.5a18.75 18.75 0 0 0-18.75-18.75H880.46v-75h225.79a56.32 56.32 0 0 1 39.757 16.492 56.32 56.32 0 0 1 16.492 39.758zM625.96 262.5h-78.302a75.05 75.05 0 0 1 39.148-11.023A75.06 75.06 0 0 1 625.96 262.5" fill="#FF8C00"/></svg>